<?xml version="1.0" encoding="UTF-8"?>
<svg xmlns="http://www.w3.org/2000/svg" width="919" height="343">
   <defs>
      <style type="text/css">
    @namespace "http://www.w3.org/2000/svg";
    .line                 {fill: none; stroke: #332900; stroke-width: 1;}
    .bold-line            {stroke: #141000; shape-rendering: crispEdges; stroke-width: 2;}
    .thin-line            {stroke: #1F1800; shape-rendering: crispEdges}
    .filled               {fill: #332900; stroke: none;}
    text.terminal         {font-family: Verdana, Sans-serif;
                            font-size: 12px;
                            fill: #141000;
                            font-weight: bold;
                          }
    text.nonterminal      {font-family: Verdana, Sans-serif;
                            font-size: 12px;
                            fill: #1A1400;
                            font-weight: normal;
                          }
    text.regexp           {font-family: Verdana, Sans-serif;
                            font-size: 12px;
                            fill: #1F1800;
                            font-weight: normal;
                          }
    rect, circle, polygon {fill: #332900; stroke: #332900;}
    rect.terminal         {fill: #FFDB4D; stroke: #332900; stroke-width: 1;}
    rect.nonterminal      {fill: #FFEC9E; stroke: #332900; stroke-width: 1;}
    rect.text             {fill: none; stroke: none;}
    polygon.regexp        {fill: #FFF4C7; stroke: #332900; stroke-width: 1;}
  </style>
   </defs>
   <polygon points="9 61 1 57 1 65"/>
   <polygon points="17 61 9 57 9 65"/>
   <rect x="31" y="47" width="48" height="32" rx="10"/>
   <rect x="29"
         y="45"
         width="48"
         height="32"
         class="terminal"
         rx="10"/>
   <text class="terminal" x="39" y="65">ADD</text>
   <rect x="99" y="47" width="98" height="32" rx="10"/>
   <rect x="97"
         y="45"
         width="98"
         height="32"
         class="terminal"
         rx="10"/>
   <text class="terminal" x="107" y="65">PARTITION</text>
   <a xmlns:xlink="http://www.w3.org/1999/xlink"
      xlink:href="#PartitionName"
      xlink:title="PartitionName">
      <rect x="217" y="47" width="110" height="32"/>
      <rect x="215" y="45" width="110" height="32" class="nonterminal"/>
      <text class="nonterminal" x="225" y="65">PartitionName</text>
   </a>
   <rect x="347" y="47" width="72" height="32" rx="10"/>
   <rect x="345"
         y="45"
         width="72"
         height="32"
         class="terminal"
         rx="10"/>
   <text class="terminal" x="355" y="65">VALUES</text>
   <rect x="459" y="47" width="26" height="32" rx="10"/>
   <rect x="457"
         y="45"
         width="26"
         height="32"
         class="terminal"
         rx="10"/>
   <text class="terminal" x="467" y="65">(</text>
   <a xmlns:xlink="http://www.w3.org/1999/xlink"
      xlink:href="#value"
      xlink:title="value">
      <rect x="525" y="47" width="54" height="32"/>
      <rect x="523" y="45" width="54" height="32" class="nonterminal"/>
      <text class="nonterminal" x="533" y="65">value</text>
   </a>
   <rect x="525" y="3" width="24" height="32" rx="10"/>
   <rect x="523"
         y="1"
         width="24"
         height="32"
         class="terminal"
         rx="10"/>
   <text class="terminal" x="533" y="21">,</text>
   <a xmlns:xlink="http://www.w3.org/1999/xlink"
      xlink:href="#DEFAULT"
      xlink:title="DEFAULT">
      <rect x="639" y="13" width="74" height="32"/>
      <rect x="637" y="11" width="74" height="32" class="nonterminal"/>
      <text class="nonterminal" x="647" y="31">DEFAULT</text>
   </a>
   <rect x="459" y="135" width="54" height="32" rx="10"/>
   <rect x="457"
         y="133"
         width="54"
         height="32"
         class="terminal"
         rx="10"/>
   <text class="terminal" x="467" y="153">LESS</text>
   <rect x="533" y="135" width="58" height="32" rx="10"/>
   <rect x="531"
         y="133"
         width="58"
         height="32"
         class="terminal"
         rx="10"/>
   <text class="terminal" x="541" y="153">THAN</text>
   <rect x="611" y="135" width="26" height="32" rx="10"/>
   <rect x="609"
         y="133"
         width="26"
         height="32"
         class="terminal"
         rx="10"/>
   <text class="terminal" x="619" y="153">(</text>
   <a xmlns:xlink="http://www.w3.org/1999/xlink"
      xlink:href="#value"
      xlink:title="value">
      <rect x="697" y="135" width="54" height="32"/>
      <rect x="695" y="133" width="54" height="32" class="nonterminal"/>
      <text class="nonterminal" x="705" y="153">value</text>
   </a>
   <rect x="697" y="179" width="94" height="32" rx="10"/>
   <rect x="695"
         y="177"
         width="94"
         height="32"
         class="terminal"
         rx="10"/>
   <text class="terminal" x="705" y="197">MAXVALUE</text>
   <rect x="677" y="91" width="24" height="32" rx="10"/>
   <rect x="675"
         y="89"
         width="24"
         height="32"
         class="terminal"
         rx="10"/>
   <text class="terminal" x="685" y="109">,</text>
   <rect x="871" y="47" width="26" height="32" rx="10"/>
   <rect x="869"
         y="45"
         width="26"
         height="32"
         class="terminal"
         rx="10"/>
   <text class="terminal" x="879" y="65">)</text>
   <a xmlns:xlink="http://www.w3.org/1999/xlink"
      xlink:href="#TablespaceOpt"
      xlink:title="TablespaceOpt">
      <rect x="533" y="289" width="114" height="32"/>
      <rect x="531" y="287" width="114" height="32" class="nonterminal"/>
      <text class="nonterminal" x="541" y="307">TablespaceOpt</text>
   </a>
   <a xmlns:xlink="http://www.w3.org/1999/xlink"
      xlink:href="#PhysicalAttrItem"
      xlink:title="PhysicalAttrItem">
      <rect x="727" y="289" width="124" height="32"/>
      <rect x="725" y="287" width="124" height="32" class="nonterminal"/>
      <text class="nonterminal" x="735" y="307">PhysicalAttrItem</text>
   </a>
   <rect x="727" y="245" width="24" height="32" rx="10"/>
   <rect x="725"
         y="243"
         width="24"
         height="32"
         class="terminal"
         rx="10"/>
   <text class="terminal" x="735" y="263">,</text>
   <path class="line"
         d="m17 61 h2 m0 0 h10 m48 0 h10 m0 0 h10 m98 0 h10 m0 0 h10 m110 0 h10 m0 0 h10 m72 0 h10 m20 0 h10 m26 0 h10 m20 0 h10 m54 0 h10 m-94 0 l20 0 m-1 0 q-9 0 -9 -10 l0 -24 q0 -10 10 -10 m74 44 l20 0 m-20 0 q10 0 10 -10 l0 -24 q0 -10 -10 -10 m-74 0 h10 m24 0 h10 m0 0 h30 m40 44 h10 m0 0 h84 m-114 0 l20 0 m-1 0 q-9 0 -9 -10 l0 -14 q0 -10 10 -10 m94 34 l20 0 m-20 0 q10 0 10 -10 l0 -14 q0 -10 -10 -10 m-94 0 h10 m74 0 h10 m20 34 h98 m-412 0 h20 m392 0 h20 m-432 0 q10 0 10 10 m412 0 q0 -10 10 -10 m-422 10 v68 m412 0 v-68 m-412 68 q0 10 10 10 m392 0 q10 0 10 -10 m-402 10 h10 m54 0 h10 m0 0 h10 m58 0 h10 m0 0 h10 m26 0 h10 m40 0 h10 m54 0 h10 m0 0 h40 m-134 0 h20 m114 0 h20 m-154 0 q10 0 10 10 m134 0 q0 -10 10 -10 m-144 10 v24 m134 0 v-24 m-134 24 q0 10 10 10 m114 0 q10 0 10 -10 m-124 10 h10 m94 0 h10 m-154 -44 l20 0 m-1 0 q-9 0 -9 -10 l0 -24 q0 -10 10 -10 m154 44 l20 0 m-20 0 q10 0 10 -10 l0 -24 q0 -10 -10 -10 m-154 0 h10 m24 0 h10 m0 0 h110 m40 -44 h10 m26 0 h10 m2 0 l2 0 m2 0 l2 0 m2 0 l2 0 m-428 276 l2 0 m2 0 l2 0 m2 0 l2 0 m22 0 h10 m0 0 h124 m-154 0 l20 0 m-1 0 q-9 0 -9 -10 l0 -14 q0 -10 10 -10 m134 34 l20 0 m-20 0 q10 0 10 -10 l0 -14 q0 -10 -10 -10 m-134 0 h10 m114 0 h10 m40 34 h10 m0 0 h174 m-204 0 l20 0 m-1 0 q-9 0 -9 -10 l0 -14 q0 -10 10 -10 m184 34 l20 0 m-20 0 q10 0 10 -10 l0 -14 q0 -10 -10 -10 m-164 0 h10 m124 0 h10 m-164 0 l20 0 m-1 0 q-9 0 -9 -10 l0 -24 q0 -10 10 -10 m144 44 l20 0 m-20 0 q10 0 10 -10 l0 -24 q0 -10 -10 -10 m-144 0 h10 m24 0 h10 m0 0 h100 m43 78 h-3"/>
   <polygon points="909 337 917 333 917 341"/>
   <polygon points="909 337 901 333 901 341"/>
</svg>
