<?xml version="1.0" encoding="UTF-8"?>
<svg xmlns="http://www.w3.org/2000/svg" width="659" height="71">
   <defs>
      <style type="text/css">
    @namespace "http://www.w3.org/2000/svg";
    .line                 {fill: none; stroke: #332900; stroke-width: 1;}
    .bold-line            {stroke: #141000; shape-rendering: crispEdges; stroke-width: 2;}
    .thin-line            {stroke: #1F1800; shape-rendering: crispEdges}
    .filled               {fill: #332900; stroke: none;}
    text.terminal         {font-family: Verdana, Sans-serif;
                            font-size: 12px;
                            fill: #141000;
                            font-weight: bold;
                          }
    text.nonterminal      {font-family: Verdana, Sans-serif;
                            font-size: 12px;
                            fill: #1A1400;
                            font-weight: normal;
                          }
    text.regexp           {font-family: Verdana, Sans-serif;
                            font-size: 12px;
                            fill: #1F1800;
                            font-weight: normal;
                          }
    rect, circle, polygon {fill: #332900; stroke: #332900;}
    rect.terminal         {fill: #FFDB4D; stroke: #332900; stroke-width: 1;}
    rect.nonterminal      {fill: #FFEC9E; stroke: #332900; stroke-width: 1;}
    rect.text             {fill: none; stroke: none;}
    polygon.regexp        {fill: #FFF4C7; stroke: #332900; stroke-width: 1;}
  </style>
   </defs>
   <polygon points="9 51 1 47 1 55"/>
   <polygon points="17 51 9 47 9 55"/>
   <rect x="31" y="37" width="98" height="32" rx="10"/>
   <rect x="29"
         y="35"
         width="98"
         height="32"
         class="terminal"
         rx="10"/>
   <text class="terminal" x="39" y="55">PARTITION</text>
   <a xmlns:xlink="http://www.w3.org/1999/xlink"
      xlink:href="#PartitionName"
      xlink:title="PartitionName">
      <rect x="149" y="37" width="110" height="32"/>
      <rect x="147" y="35" width="110" height="32" class="nonterminal"/>
      <text class="nonterminal" x="157" y="55">PartitionName</text>
   </a>
   <a xmlns:xlink="http://www.w3.org/1999/xlink"
      xlink:href="#TablespaceOpt"
      xlink:title="TablespaceOpt">
      <rect x="299" y="3" width="114" height="32"/>
      <rect x="297" y="1" width="114" height="32" class="nonterminal"/>
      <text class="nonterminal" x="307" y="21">TablespaceOpt</text>
   </a>
   <a xmlns:xlink="http://www.w3.org/1999/xlink"
      xlink:href="#PhysicalAttrClause"
      xlink:title="PhysicalAttrClause">
      <rect x="473" y="3" width="138" height="32"/>
      <rect x="471" y="1" width="138" height="32" class="nonterminal"/>
      <text class="nonterminal" x="481" y="21">PhysicalAttrClause</text>
   </a>
   <path class="line"
         d="m17 51 h2 m0 0 h10 m98 0 h10 m0 0 h10 m110 0 h10 m20 0 h10 m0 0 h124 m-154 0 l20 0 m-1 0 q-9 0 -9 -10 l0 -14 q0 -10 10 -10 m134 34 l20 0 m-20 0 q10 0 10 -10 l0 -14 q0 -10 -10 -10 m-134 0 h10 m114 0 h10 m40 34 h10 m0 0 h148 m-178 0 l20 0 m-1 0 q-9 0 -9 -10 l0 -14 q0 -10 10 -10 m158 34 l20 0 m-20 0 q10 0 10 -10 l0 -14 q0 -10 -10 -10 m-158 0 h10 m138 0 h10 m23 34 h-3"/>
   <polygon points="649 51 657 47 657 55"/>
   <polygon points="649 51 641 47 641 55"/>
</svg>
