<?xml version="1.0" encoding="UTF-8"?>
<svg xmlns="http://www.w3.org/2000/svg" width="799" height="113">
   <defs>
      <style type="text/css">
    @namespace "http://www.w3.org/2000/svg";
    .line                 {fill: none; stroke: #332900; stroke-width: 1;}
    .bold-line            {stroke: #141000; shape-rendering: crispEdges; stroke-width: 2;}
    .thin-line            {stroke: #1F1800; shape-rendering: crispEdges}
    .filled               {fill: #332900; stroke: none;}
    text.terminal         {font-family: Verdana, Sans-serif;
                            font-size: 12px;
                            fill: #141000;
                            font-weight: bold;
                          }
    text.nonterminal      {font-family: Verdana, Sans-serif;
                            font-size: 12px;
                            fill: #1A1400;
                            font-weight: normal;
                          }
    text.regexp           {font-family: Verdana, Sans-serif;
                            font-size: 12px;
                            fill: #1F1800;
                            font-weight: normal;
                          }
    rect, circle, polygon {fill: #332900; stroke: #332900;}
    rect.terminal         {fill: #FFDB4D; stroke: #332900; stroke-width: 1;}
    rect.nonterminal      {fill: #FFEC9E; stroke: #332900; stroke-width: 1;}
    rect.text             {fill: none; stroke: none;}
    polygon.regexp        {fill: #FFF4C7; stroke: #332900; stroke-width: 1;}
  </style>
   </defs>
   <polygon points="9 77 1 73 1 81"/>
   <polygon points="17 77 9 73 9 81"/>
   <rect x="31" y="63" width="106" height="32" rx="10"/>
   <rect x="29"
         y="61"
         width="106"
         height="32"
         class="terminal"
         rx="10"/>
   <text class="terminal" x="39" y="81">PARTITIONS</text>
   <a xmlns:xlink="http://www.w3.org/1999/xlink"
      xlink:href="#PartitionCount"
      xlink:title="PartitionCount">
      <rect x="157" y="63" width="112" height="32"/>
      <rect x="155" y="61" width="112" height="32" class="nonterminal"/>
      <text class="nonterminal" x="165" y="81">PartitionCount</text>
   </a>
   <rect x="329" y="63" width="66" height="32" rx="10"/>
   <rect x="327"
         y="61"
         width="66"
         height="32"
         class="terminal"
         rx="10"/>
   <text class="terminal" x="337" y="81">STORE</text>
   <rect x="415" y="63" width="36" height="32" rx="10"/>
   <rect x="413"
         y="61"
         width="36"
         height="32"
         class="terminal"
         rx="10"/>
   <text class="terminal" x="423" y="81">IN</text>
   <rect x="471" y="63" width="26" height="32" rx="10"/>
   <rect x="469"
         y="61"
         width="26"
         height="32"
         class="terminal"
         rx="10"/>
   <text class="terminal" x="479" y="81">(</text>
   <a xmlns:xlink="http://www.w3.org/1999/xlink"
      xlink:href="#TablespaceName"
      xlink:title="TablespaceName">
      <rect x="537" y="63" width="128" height="32"/>
      <rect x="535" y="61" width="128" height="32" class="nonterminal"/>
      <text class="nonterminal" x="545" y="81">TablespaceName</text>
   </a>
   <rect x="537" y="19" width="24" height="32" rx="10"/>
   <rect x="535"
         y="17"
         width="24"
         height="32"
         class="terminal"
         rx="10"/>
   <text class="terminal" x="545" y="37">,</text>
   <rect x="705" y="63" width="26" height="32" rx="10"/>
   <rect x="703"
         y="61"
         width="26"
         height="32"
         class="terminal"
         rx="10"/>
   <text class="terminal" x="713" y="81">)</text>
   <path class="line"
         d="m17 77 h2 m0 0 h10 m106 0 h10 m0 0 h10 m112 0 h10 m40 0 h10 m66 0 h10 m0 0 h10 m36 0 h10 m0 0 h10 m26 0 h10 m20 0 h10 m128 0 h10 m-168 0 l20 0 m-1 0 q-9 0 -9 -10 l0 -24 q0 -10 10 -10 m148 44 l20 0 m-20 0 q10 0 10 -10 l0 -24 q0 -10 -10 -10 m-148 0 h10 m24 0 h10 m0 0 h104 m20 44 h10 m26 0 h10 m-442 0 l20 0 m-1 0 q-9 0 -9 -10 l0 -56 q0 -10 10 -10 m422 76 l20 0 m-20 0 q10 0 10 -10 l0 -56 q0 -10 -10 -10 m-422 0 h10 m0 0 h412 m-462 76 h20 m462 0 h20 m-502 0 q10 0 10 10 m482 0 q0 -10 10 -10 m-492 10 v14 m482 0 v-14 m-482 14 q0 10 10 10 m462 0 q10 0 10 -10 m-472 10 h10 m0 0 h452 m23 -34 h-3"/>
   <polygon points="789 77 797 73 797 81"/>
   <polygon points="789 77 781 73 781 81"/>
</svg>
