<?xml version="1.0" encoding="UTF-8"?>
<svg xmlns="http://www.w3.org/2000/svg" width="823" height="147">
   <defs>
      <style type="text/css">
    @namespace "http://www.w3.org/2000/svg";
    .line                 {fill: none; stroke: #332900; stroke-width: 1;}
    .bold-line            {stroke: #141000; shape-rendering: crispEdges; stroke-width: 2;}
    .thin-line            {stroke: #1F1800; shape-rendering: crispEdges}
    .filled               {fill: #332900; stroke: none;}
    text.terminal         {font-family: Verdana, Sans-serif;
                            font-size: 12px;
                            fill: #141000;
                            font-weight: bold;
                          }
    text.nonterminal      {font-family: Verdana, Sans-serif;
                            font-size: 12px;
                            fill: #1A1400;
                            font-weight: normal;
                          }
    text.regexp           {font-family: Verdana, Sans-serif;
                            font-size: 12px;
                            fill: #1F1800;
                            font-weight: normal;
                          }
    rect, circle, polygon {fill: #332900; stroke: #332900;}
    rect.terminal         {fill: #FFDB4D; stroke: #332900; stroke-width: 1;}
    rect.nonterminal      {fill: #FFEC9E; stroke: #332900; stroke-width: 1;}
    rect.text             {fill: none; stroke: none;}
    polygon.regexp        {fill: #FFF4C7; stroke: #332900; stroke-width: 1;}
  </style>
   </defs>
   <polygon points="9 17 1 13 1 21"/>
   <polygon points="17 17 9 13 9 21"/>
   <rect x="31" y="3" width="98" height="32" rx="10"/>
   <rect x="29"
         y="1"
         width="98"
         height="32"
         class="terminal"
         rx="10"/>
   <text class="terminal" x="39" y="21">PARTITION</text>
   <rect x="149" y="3" width="38" height="32" rx="10"/>
   <rect x="147"
         y="1"
         width="38"
         height="32"
         class="terminal"
         rx="10"/>
   <text class="terminal" x="157" y="21">BY</text>
   <rect x="207" y="3" width="66" height="32" rx="10"/>
   <rect x="205"
         y="1"
         width="66"
         height="32"
         class="terminal"
         rx="10"/>
   <text class="terminal" x="215" y="21">RANGE</text>
   <rect x="293" y="3" width="26" height="32" rx="10"/>
   <rect x="291"
         y="1"
         width="26"
         height="32"
         class="terminal"
         rx="10"/>
   <text class="terminal" x="301" y="21">(</text>
   <a xmlns:xlink="http://www.w3.org/1999/xlink"
      xlink:href="#PartitionKey"
      xlink:title="PartitionKey">
      <rect x="339" y="3" width="96" height="32"/>
      <rect x="337" y="1" width="96" height="32" class="nonterminal"/>
      <text class="nonterminal" x="347" y="21">PartitionKey</text>
   </a>
   <rect x="455" y="3" width="26" height="32" rx="10"/>
   <rect x="453"
         y="1"
         width="26"
         height="32"
         class="terminal"
         rx="10"/>
   <text class="terminal" x="463" y="21">)</text>
   <rect x="501" y="3" width="88" height="32" rx="10"/>
   <rect x="499"
         y="1"
         width="88"
         height="32"
         class="terminal"
         rx="10"/>
   <text class="terminal" x="509" y="21">INTERVAL</text>
   <rect x="609" y="3" width="26" height="32" rx="10"/>
   <rect x="607"
         y="1"
         width="26"
         height="32"
         class="terminal"
         rx="10"/>
   <text class="terminal" x="617" y="21">(</text>
   <a xmlns:xlink="http://www.w3.org/1999/xlink"
      xlink:href="#value"
      xlink:title="value">
      <rect x="655" y="3" width="54" height="32"/>
      <rect x="653" y="1" width="54" height="32" class="nonterminal"/>
      <text class="nonterminal" x="663" y="21">value</text>
   </a>
   <rect x="729" y="3" width="26" height="32" rx="10"/>
   <rect x="727"
         y="1"
         width="26"
         height="32"
         class="terminal"
         rx="10"/>
   <text class="terminal" x="737" y="21">)</text>
   <rect x="775" y="3" width="26" height="32" rx="10"/>
   <rect x="773"
         y="1"
         width="26"
         height="32"
         class="terminal"
         rx="10"/>
   <text class="terminal" x="783" y="21">(</text>
   <a xmlns:xlink="http://www.w3.org/1999/xlink"
      xlink:href="#RangePartitionItem"
      xlink:title="RangePartitionItem">
      <rect x="585" y="113" width="144" height="32"/>
      <rect x="583" y="111" width="144" height="32" class="nonterminal"/>
      <text class="nonterminal" x="593" y="131">RangePartitionItem</text>
   </a>
   <rect x="585" y="69" width="24" height="32" rx="10"/>
   <rect x="583"
         y="67"
         width="24"
         height="32"
         class="terminal"
         rx="10"/>
   <text class="terminal" x="593" y="87">,</text>
   <rect x="769" y="113" width="26" height="32" rx="10"/>
   <rect x="767"
         y="111"
         width="26"
         height="32"
         class="terminal"
         rx="10"/>
   <text class="terminal" x="777" y="131">)</text>
   <path class="line"
         d="m17 17 h2 m0 0 h10 m98 0 h10 m0 0 h10 m38 0 h10 m0 0 h10 m66 0 h10 m0 0 h10 m26 0 h10 m0 0 h10 m96 0 h10 m0 0 h10 m26 0 h10 m0 0 h10 m88 0 h10 m0 0 h10 m26 0 h10 m0 0 h10 m54 0 h10 m0 0 h10 m26 0 h10 m0 0 h10 m26 0 h10 m2 0 l2 0 m2 0 l2 0 m2 0 l2 0 m-280 110 l2 0 m2 0 l2 0 m2 0 l2 0 m22 0 h10 m144 0 h10 m-184 0 l20 0 m-1 0 q-9 0 -9 -10 l0 -24 q0 -10 10 -10 m164 44 l20 0 m-20 0 q10 0 10 -10 l0 -24 q0 -10 -10 -10 m-164 0 h10 m24 0 h10 m0 0 h120 m20 44 h10 m26 0 h10 m3 0 h-3"/>
   <polygon points="813 127 821 123 821 131"/>
   <polygon points="813 127 805 123 805 131"/>
</svg>
