<?xml version="1.0" encoding="UTF-8"?>
<svg xmlns="http://www.w3.org/2000/svg" width="887" height="167">
   <defs>
      <style type="text/css">
    @namespace "http://www.w3.org/2000/svg";
    .line                 {fill: none; stroke: #332900; stroke-width: 1;}
    .bold-line            {stroke: #141000; shape-rendering: crispEdges; stroke-width: 2;}
    .thin-line            {stroke: #1F1800; shape-rendering: crispEdges}
    .filled               {fill: #332900; stroke: none;}
    text.terminal         {font-family: Verdana, Sans-serif;
                            font-size: 12px;
                            fill: #141000;
                            font-weight: bold;
                          }
    text.nonterminal      {font-family: Verdana, Sans-serif;
                            font-size: 12px;
                            fill: #1A1400;
                            font-weight: normal;
                          }
    text.regexp           {font-family: Verdana, Sans-serif;
                            font-size: 12px;
                            fill: #1F1800;
                            font-weight: normal;
                          }
    rect, circle, polygon {fill: #332900; stroke: #332900;}
    rect.terminal         {fill: #FFDB4D; stroke: #332900; stroke-width: 1;}
    rect.nonterminal      {fill: #FFEC9E; stroke: #332900; stroke-width: 1;}
    rect.text             {fill: none; stroke: none;}
    polygon.regexp        {fill: #FFF4C7; stroke: #332900; stroke-width: 1;}
  </style>
   </defs>
   <polygon points="9 61 1 57 1 65"/>
   <polygon points="17 61 9 57 9 65"/>
   <rect x="31" y="47" width="98" height="32" rx="10"/>
   <rect x="29"
         y="45"
         width="98"
         height="32"
         class="terminal"
         rx="10"/>
   <text class="terminal" x="39" y="65">PARTITION</text>
   <a xmlns:xlink="http://www.w3.org/1999/xlink"
      xlink:href="#PartitionName"
      xlink:title="PartitionName">
      <rect x="149" y="47" width="110" height="32"/>
      <rect x="147" y="45" width="110" height="32" class="nonterminal"/>
      <text class="nonterminal" x="157" y="65">PartitionName</text>
   </a>
   <rect x="279" y="47" width="72" height="32" rx="10"/>
   <rect x="277"
         y="45"
         width="72"
         height="32"
         class="terminal"
         rx="10"/>
   <text class="terminal" x="287" y="65">VALUES</text>
   <rect x="371" y="47" width="26" height="32" rx="10"/>
   <rect x="369"
         y="45"
         width="26"
         height="32"
         class="terminal"
         rx="10"/>
   <text class="terminal" x="379" y="65">(</text>
   <a xmlns:xlink="http://www.w3.org/1999/xlink"
      xlink:href="#value"
      xlink:title="value">
      <rect x="437" y="47" width="54" height="32"/>
      <rect x="435" y="45" width="54" height="32" class="nonterminal"/>
      <text class="nonterminal" x="445" y="65">value</text>
   </a>
   <rect x="437" y="3" width="24" height="32" rx="10"/>
   <rect x="435"
         y="1"
         width="24"
         height="32"
         class="terminal"
         rx="10"/>
   <text class="terminal" x="445" y="21">,</text>
   <a xmlns:xlink="http://www.w3.org/1999/xlink"
      xlink:href="#DEFAULT"
      xlink:title="DEFAULT">
      <rect x="551" y="13" width="74" height="32"/>
      <rect x="549" y="11" width="74" height="32" class="nonterminal"/>
      <text class="nonterminal" x="559" y="31">DEFAULT</text>
   </a>
   <rect x="665" y="47" width="26" height="32" rx="10"/>
   <rect x="663"
         y="45"
         width="26"
         height="32"
         class="terminal"
         rx="10"/>
   <text class="terminal" x="673" y="65">)</text>
   <a xmlns:xlink="http://www.w3.org/1999/xlink"
      xlink:href="#TablespaceOpt"
      xlink:title="TablespaceOpt">
      <rect x="731" y="13" width="114" height="32"/>
      <rect x="729" y="11" width="114" height="32" class="nonterminal"/>
      <text class="nonterminal" x="739" y="31">TablespaceOpt</text>
   </a>
   <a xmlns:xlink="http://www.w3.org/1999/xlink"
      xlink:href="#PhysicalAttrClause"
      xlink:title="PhysicalAttrClause">
      <rect x="701" y="113" width="138" height="32"/>
      <rect x="699" y="111" width="138" height="32" class="nonterminal"/>
      <text class="nonterminal" x="709" y="131">PhysicalAttrClause</text>
   </a>
   <path class="line"
         d="m17 61 h2 m0 0 h10 m98 0 h10 m0 0 h10 m110 0 h10 m0 0 h10 m72 0 h10 m0 0 h10 m26 0 h10 m20 0 h10 m54 0 h10 m-94 0 l20 0 m-1 0 q-9 0 -9 -10 l0 -24 q0 -10 10 -10 m74 44 l20 0 m-20 0 q10 0 10 -10 l0 -24 q0 -10 -10 -10 m-74 0 h10 m24 0 h10 m0 0 h30 m40 44 h10 m0 0 h84 m-114 0 l20 0 m-1 0 q-9 0 -9 -10 l0 -14 q0 -10 10 -10 m94 34 l20 0 m-20 0 q10 0 10 -10 l0 -14 q0 -10 -10 -10 m-94 0 h10 m74 0 h10 m20 34 h10 m26 0 h10 m20 0 h10 m0 0 h124 m-154 0 l20 0 m-1 0 q-9 0 -9 -10 l0 -14 q0 -10 10 -10 m134 34 l20 0 m-20 0 q10 0 10 -10 l0 -14 q0 -10 -10 -10 m-134 0 h10 m114 0 h10 m22 34 l2 0 m2 0 l2 0 m2 0 l2 0 m-228 100 l2 0 m2 0 l2 0 m2 0 l2 0 m22 0 h10 m0 0 h148 m-178 0 l20 0 m-1 0 q-9 0 -9 -10 l0 -14 q0 -10 10 -10 m158 34 l20 0 m-20 0 q10 0 10 -10 l0 -14 q0 -10 -10 -10 m-158 0 h10 m138 0 h10 m23 34 h-3"/>
   <polygon points="877 161 885 157 885 165"/>
   <polygon points="877 161 869 157 869 165"/>
</svg>
