<?xml version="1.0" encoding="UTF-8"?>
<svg xmlns="http://www.w3.org/2000/svg" width="813" height="81">
   <defs>
      <style type="text/css">
    @namespace "http://www.w3.org/2000/svg";
    .line                 {fill: none; stroke: #332900; stroke-width: 1;}
    .bold-line            {stroke: #141000; shape-rendering: crispEdges; stroke-width: 2;}
    .thin-line            {stroke: #1F1800; shape-rendering: crispEdges}
    .filled               {fill: #332900; stroke: none;}
    text.terminal         {font-family: Verdana, Sans-serif;
                            font-size: 12px;
                            fill: #141000;
                            font-weight: bold;
                          }
    text.nonterminal      {font-family: Verdana, Sans-serif;
                            font-size: 12px;
                            fill: #1A1400;
                            font-weight: normal;
                          }
    text.regexp           {font-family: Verdana, Sans-serif;
                            font-size: 12px;
                            fill: #1F1800;
                            font-weight: normal;
                          }
    rect, circle, polygon {fill: #332900; stroke: #332900;}
    rect.terminal         {fill: #FFDB4D; stroke: #332900; stroke-width: 1;}
    rect.nonterminal      {fill: #FFEC9E; stroke: #332900; stroke-width: 1;}
    rect.text             {fill: none; stroke: none;}
    polygon.regexp        {fill: #FFF4C7; stroke: #332900; stroke-width: 1;}
  </style>
   </defs>
   <polygon points="9 61 1 57 1 65"/>
   <polygon points="17 61 9 57 9 65"/>
   <rect x="31" y="47" width="98" height="32" rx="10"/>
   <rect x="29"
         y="45"
         width="98"
         height="32"
         class="terminal"
         rx="10"/>
   <text class="terminal" x="39" y="65">PARTITION</text>
   <rect x="149" y="47" width="38" height="32" rx="10"/>
   <rect x="147"
         y="45"
         width="38"
         height="32"
         class="terminal"
         rx="10"/>
   <text class="terminal" x="157" y="65">BY</text>
   <rect x="207" y="47" width="52" height="32" rx="10"/>
   <rect x="205"
         y="45"
         width="52"
         height="32"
         class="terminal"
         rx="10"/>
   <text class="terminal" x="215" y="65">LIST</text>
   <rect x="279" y="47" width="26" height="32" rx="10"/>
   <rect x="277"
         y="45"
         width="26"
         height="32"
         class="terminal"
         rx="10"/>
   <text class="terminal" x="287" y="65">(</text>
   <a xmlns:xlink="http://www.w3.org/1999/xlink"
      xlink:href="#PartitionKey"
      xlink:title="PartitionKey">
      <rect x="345" y="47" width="96" height="32"/>
      <rect x="343" y="45" width="96" height="32" class="nonterminal"/>
      <text class="nonterminal" x="353" y="65">PartitionKey</text>
   </a>
   <rect x="345" y="3" width="24" height="32" rx="10"/>
   <rect x="343"
         y="1"
         width="24"
         height="32"
         class="terminal"
         rx="10"/>
   <text class="terminal" x="353" y="21">,</text>
   <rect x="481" y="47" width="26" height="32" rx="10"/>
   <rect x="479"
         y="45"
         width="26"
         height="32"
         class="terminal"
         rx="10"/>
   <text class="terminal" x="489" y="65">)</text>
   <rect x="527" y="47" width="26" height="32" rx="10"/>
   <rect x="525"
         y="45"
         width="26"
         height="32"
         class="terminal"
         rx="10"/>
   <text class="terminal" x="535" y="65">(</text>
   <a xmlns:xlink="http://www.w3.org/1999/xlink"
      xlink:href="#ListPartitionItem"
      xlink:title="ListPartitionItem">
      <rect x="593" y="47" width="126" height="32"/>
      <rect x="591" y="45" width="126" height="32" class="nonterminal"/>
      <text class="nonterminal" x="601" y="65">ListPartitionItem</text>
   </a>
   <rect x="593" y="3" width="24" height="32" rx="10"/>
   <rect x="591"
         y="1"
         width="24"
         height="32"
         class="terminal"
         rx="10"/>
   <text class="terminal" x="601" y="21">,</text>
   <rect x="759" y="47" width="26" height="32" rx="10"/>
   <rect x="757"
         y="45"
         width="26"
         height="32"
         class="terminal"
         rx="10"/>
   <text class="terminal" x="767" y="65">)</text>
   <path class="line"
         d="m17 61 h2 m0 0 h10 m98 0 h10 m0 0 h10 m38 0 h10 m0 0 h10 m52 0 h10 m0 0 h10 m26 0 h10 m20 0 h10 m96 0 h10 m-136 0 l20 0 m-1 0 q-9 0 -9 -10 l0 -24 q0 -10 10 -10 m116 44 l20 0 m-20 0 q10 0 10 -10 l0 -24 q0 -10 -10 -10 m-116 0 h10 m24 0 h10 m0 0 h72 m20 44 h10 m26 0 h10 m0 0 h10 m26 0 h10 m20 0 h10 m126 0 h10 m-166 0 l20 0 m-1 0 q-9 0 -9 -10 l0 -24 q0 -10 10 -10 m146 44 l20 0 m-20 0 q10 0 10 -10 l0 -24 q0 -10 -10 -10 m-146 0 h10 m24 0 h10 m0 0 h102 m20 44 h10 m26 0 h10 m3 0 h-3"/>
   <polygon points="803 61 811 57 811 65"/>
   <polygon points="803 61 795 57 795 65"/>
</svg>
