<?xml version="1.0" encoding="UTF-8"?>
<svg xmlns="http://www.w3.org/2000/svg" width="245" height="169">
   <defs>
      <style type="text/css">
    @namespace "http://www.w3.org/2000/svg";
    .line                 {fill: none; stroke: #332900; stroke-width: 1;}
    .bold-line            {stroke: #141000; shape-rendering: crispEdges; stroke-width: 2;}
    .thin-line            {stroke: #1F1800; shape-rendering: crispEdges}
    .filled               {fill: #332900; stroke: none;}
    text.terminal         {font-family: Verdana, Sans-serif;
                            font-size: 12px;
                            fill: #141000;
                            font-weight: bold;
                          }
    text.nonterminal      {font-family: Verdana, Sans-serif;
                            font-size: 12px;
                            fill: #1A1400;
                            font-weight: normal;
                          }
    text.regexp           {font-family: Verdana, Sans-serif;
                            font-size: 12px;
                            fill: #1F1800;
                            font-weight: normal;
                          }
    rect, circle, polygon {fill: #332900; stroke: #332900;}
    rect.terminal         {fill: #FFDB4D; stroke: #332900; stroke-width: 1;}
    rect.nonterminal      {fill: #FFEC9E; stroke: #332900; stroke-width: 1;}
    rect.text             {fill: none; stroke: none;}
    polygon.regexp        {fill: #FFF4C7; stroke: #332900; stroke-width: 1;}
  </style>
   </defs>
   <polygon points="9 17 1 13 1 21"/>
   <polygon points="17 17 9 13 9 21"/>
   <a xmlns:xlink="http://www.w3.org/1999/xlink"
      xlink:href="#RangePartitionOpt"
      xlink:title="RangePartitionOpt">
      <rect x="51" y="3" width="136" height="32"/>
      <rect x="49" y="1" width="136" height="32" class="nonterminal"/>
      <text class="nonterminal" x="59" y="21">RangePartitionOpt</text>
   </a>
   <a xmlns:xlink="http://www.w3.org/1999/xlink"
      xlink:href="#ListPartitionOpt"
      xlink:title="ListPartitionOpt">
      <rect x="51" y="47" width="118" height="32"/>
      <rect x="49" y="45" width="118" height="32" class="nonterminal"/>
      <text class="nonterminal" x="59" y="65">ListPartitionOpt</text>
   </a>
   <a xmlns:xlink="http://www.w3.org/1999/xlink"
      xlink:href="#HashPartitionOpt"
      xlink:title="HashPartitionOpt">
      <rect x="51" y="91" width="128" height="32"/>
      <rect x="49" y="89" width="128" height="32" class="nonterminal"/>
      <text class="nonterminal" x="59" y="109">HashPartitionOpt</text>
   </a>
   <a xmlns:xlink="http://www.w3.org/1999/xlink"
      xlink:href="#IntervalPartitionOpt"
      xlink:title="IntervalPartitionOpt">
      <rect x="51" y="135" width="146" height="32"/>
      <rect x="49" y="133" width="146" height="32" class="nonterminal"/>
      <text class="nonterminal" x="59" y="153">IntervalPartitionOpt</text>
   </a>
   <path class="line"
         d="m17 17 h2 m20 0 h10 m136 0 h10 m0 0 h10 m-186 0 h20 m166 0 h20 m-206 0 q10 0 10 10 m186 0 q0 -10 10 -10 m-196 10 v24 m186 0 v-24 m-186 24 q0 10 10 10 m166 0 q10 0 10 -10 m-176 10 h10 m118 0 h10 m0 0 h28 m-176 -10 v20 m186 0 v-20 m-186 20 v24 m186 0 v-24 m-186 24 q0 10 10 10 m166 0 q10 0 10 -10 m-176 10 h10 m128 0 h10 m0 0 h18 m-176 -10 v20 m186 0 v-20 m-186 20 v24 m186 0 v-24 m-186 24 q0 10 10 10 m166 0 q10 0 10 -10 m-176 10 h10 m146 0 h10 m23 -132 h-3"/>
   <polygon points="235 17 243 13 243 21"/>
   <polygon points="235 17 227 13 227 21"/>
</svg>
