<?xml version="1.0" encoding="UTF-8"?>
<svg xmlns="http://www.w3.org/2000/svg" width="845" height="81">
   <defs>
      <style type="text/css">
    @namespace "http://www.w3.org/2000/svg";
    .line                 {fill: none; stroke: #332900; stroke-width: 1;}
    .bold-line            {stroke: #141000; shape-rendering: crispEdges; stroke-width: 2;}
    .thin-line            {stroke: #1F1800; shape-rendering: crispEdges}
    .filled               {fill: #332900; stroke: none;}
    text.terminal         {font-family: Verdana, Sans-serif;
                            font-size: 12px;
                            fill: #141000;
                            font-weight: bold;
                          }
    text.nonterminal      {font-family: Verdana, Sans-serif;
                            font-size: 12px;
                            fill: #1A1400;
                            font-weight: normal;
                          }
    text.regexp           {font-family: Verdana, Sans-serif;
                            font-size: 12px;
                            fill: #1F1800;
                            font-weight: normal;
                          }
    rect, circle, polygon {fill: #332900; stroke: #332900;}
    rect.terminal         {fill: #FFDB4D; stroke: #332900; stroke-width: 1;}
    rect.nonterminal      {fill: #FFEC9E; stroke: #332900; stroke-width: 1;}
    rect.text             {fill: none; stroke: none;}
    polygon.regexp        {fill: #FFF4C7; stroke: #332900; stroke-width: 1;}
  </style>
   </defs>
   <polygon points="9 61 1 57 1 65"/>
   <polygon points="17 61 9 57 9 65"/>
   <rect x="31" y="47" width="98" height="32" rx="10"/>
   <rect x="29"
         y="45"
         width="98"
         height="32"
         class="terminal"
         rx="10"/>
   <text class="terminal" x="39" y="65">PARTITION</text>
   <rect x="149" y="47" width="38" height="32" rx="10"/>
   <rect x="147"
         y="45"
         width="38"
         height="32"
         class="terminal"
         rx="10"/>
   <text class="terminal" x="157" y="65">BY</text>
   <rect x="207" y="47" width="66" height="32" rx="10"/>
   <rect x="205"
         y="45"
         width="66"
         height="32"
         class="terminal"
         rx="10"/>
   <text class="terminal" x="215" y="65">RANGE</text>
   <rect x="293" y="47" width="26" height="32" rx="10"/>
   <rect x="291"
         y="45"
         width="26"
         height="32"
         class="terminal"
         rx="10"/>
   <text class="terminal" x="301" y="65">(</text>
   <a xmlns:xlink="http://www.w3.org/1999/xlink"
      xlink:href="#PartitionKey"
      xlink:title="PartitionKey">
      <rect x="359" y="47" width="96" height="32"/>
      <rect x="357" y="45" width="96" height="32" class="nonterminal"/>
      <text class="nonterminal" x="367" y="65">PartitionKey</text>
   </a>
   <rect x="359" y="3" width="24" height="32" rx="10"/>
   <rect x="357"
         y="1"
         width="24"
         height="32"
         class="terminal"
         rx="10"/>
   <text class="terminal" x="367" y="21">,</text>
   <rect x="495" y="47" width="26" height="32" rx="10"/>
   <rect x="493"
         y="45"
         width="26"
         height="32"
         class="terminal"
         rx="10"/>
   <text class="terminal" x="503" y="65">)</text>
   <rect x="541" y="47" width="26" height="32" rx="10"/>
   <rect x="539"
         y="45"
         width="26"
         height="32"
         class="terminal"
         rx="10"/>
   <text class="terminal" x="549" y="65">(</text>
   <a xmlns:xlink="http://www.w3.org/1999/xlink"
      xlink:href="#RangePartitionItem"
      xlink:title="RangePartitionItem">
      <rect x="607" y="47" width="144" height="32"/>
      <rect x="605" y="45" width="144" height="32" class="nonterminal"/>
      <text class="nonterminal" x="615" y="65">RangePartitionItem</text>
   </a>
   <rect x="607" y="3" width="24" height="32" rx="10"/>
   <rect x="605"
         y="1"
         width="24"
         height="32"
         class="terminal"
         rx="10"/>
   <text class="terminal" x="615" y="21">,</text>
   <rect x="791" y="47" width="26" height="32" rx="10"/>
   <rect x="789"
         y="45"
         width="26"
         height="32"
         class="terminal"
         rx="10"/>
   <text class="terminal" x="799" y="65">)</text>
   <path class="line"
         d="m17 61 h2 m0 0 h10 m98 0 h10 m0 0 h10 m38 0 h10 m0 0 h10 m66 0 h10 m0 0 h10 m26 0 h10 m20 0 h10 m96 0 h10 m-136 0 l20 0 m-1 0 q-9 0 -9 -10 l0 -24 q0 -10 10 -10 m116 44 l20 0 m-20 0 q10 0 10 -10 l0 -24 q0 -10 -10 -10 m-116 0 h10 m24 0 h10 m0 0 h72 m20 44 h10 m26 0 h10 m0 0 h10 m26 0 h10 m20 0 h10 m144 0 h10 m-184 0 l20 0 m-1 0 q-9 0 -9 -10 l0 -24 q0 -10 10 -10 m164 44 l20 0 m-20 0 q10 0 10 -10 l0 -24 q0 -10 -10 -10 m-164 0 h10 m24 0 h10 m0 0 h120 m20 44 h10 m26 0 h10 m3 0 h-3"/>
   <polygon points="835 61 843 57 843 65"/>
   <polygon points="835 61 827 57 827 65"/>
</svg>
